<svg width="0" height="0" class="hidden">
  <symbol id="logo" xmlns="http://www.w3.org/2000/svg" viewBox="0 0 104 43">
    <g clip-path="url(#clip0_2149_507)">
      <path d="M89.1129 34.3065C88.4525 34.1894 87.8225 34.037 87.1828 33.9227C85.4032 33.625 83.5943 33.5558 81.7979 33.7166C77.3864 34.0582 73.1126 35.1674 68.8624 36.3331C65.3538 37.2941 61.8562 38.2919 58.3463 39.2431C55.0376 40.1406 51.6958 40.9239 48.3251 41.5589C45.8836 42.019 43.4228 42.2942 40.9344 42.2053C38.3882 42.1295 35.8637 41.7023 33.4292 40.9352C30.656 40.0506 28.0466 38.6979 25.7089 36.9329C24.8768 36.3064 24.0865 35.6237 23.3432 34.8894C22.9297 34.466 22.534 34.0271 22.1094 33.5727C22.2955 33.5078 22.3658 33.639 22.4526 33.7053C24.2322 35.0748 26.1876 36.187 28.2635 37.0105C31.3526 38.21 34.6633 38.692 37.9566 38.4217C40.9371 38.2002 43.8157 37.496 46.6418 36.542C50.4248 35.2718 54.0381 33.5685 57.6542 31.8848C58.8192 31.3387 59.9979 30.8165 61.1573 30.2633C62.8916 29.4363 64.6355 28.6404 66.4195 27.9432C68.9644 26.9355 71.6903 26.4962 74.4146 26.6546C77.1389 26.8131 79.7986 27.5656 82.2156 28.862C84.4887 30.0501 86.5627 31.6007 88.3601 33.4556C88.6207 33.7279 88.8619 34.0229 89.1129 34.3065Z" fill="#FE9400"></path>
      <path d="M48.4923 21.8551C48.6137 22.102 48.7115 22.3264 48.8301 22.5381C49.2612 23.3269 49.8992 23.9765 50.6719 24.4137C50.8801 24.5322 51.0069 24.5012 51.182 24.3473C52.2629 23.3999 53.3515 22.4591 54.448 21.5248C54.6341 21.3668 54.6906 21.2327 54.521 21.038C54.483 20.9935 54.4522 20.943 54.43 20.8884C54.2798 20.561 54.113 20.5483 53.8496 20.7966C53.5367 21.0734 53.21 21.3334 52.8708 21.5756C52.3952 21.9369 51.8975 21.8438 51.5543 21.3372C51.1517 20.7458 51.0442 20.067 51.0028 19.3699C50.8512 17.1119 50.9642 14.8539 50.9435 12.5959C50.9435 12.284 50.8787 12.1598 50.5534 12.1895C50.2046 12.2205 49.8517 12.1895 49.3953 12.1895C50.7381 11.1762 51.2827 9.84115 51.4247 8.3029C51.5667 6.76464 51.2868 5.33929 50.0943 4.16373C50.6866 4.23144 51.2675 4.37951 51.8217 4.60404C53.6373 5.27438 55.2131 6.33281 56.447 7.84989C57.2741 8.87305 58.0227 9.96677 58.4515 11.2482C58.8899 12.5606 59.2345 13.8985 59.1408 15.2914C59.0622 16.5446 59.0029 17.809 58.5576 19.0114C57.9524 20.6259 57.1101 22.0752 55.9093 23.303C53.3846 25.8799 50.8654 28.463 48.3517 31.0521C48.1601 31.2497 48.0567 31.2906 47.8416 31.0691C45.6359 28.8012 43.4301 26.5531 41.2243 24.2852C40.4688 23.5062 39.6789 22.7597 39.0599 21.848C37.298 19.2485 36.6363 16.3851 37.2042 13.2846C37.9776 9.05086 40.415 6.18462 44.3082 4.61673C45.7461 4.03812 47.2654 3.88289 48.8053 3.95487C49.1306 3.97039 49.394 4.03249 49.5759 4.39941C49.7579 4.76634 50.0157 5.07257 50.1674 5.44796C50.5809 6.48522 50.3424 7.3997 49.6366 8.21681C48.8508 9.12424 47.8596 9.76918 46.9042 10.4593C45.8606 11.2129 44.8514 12.0116 44.0174 12.9995C43.3059 13.8185 42.8289 14.8225 42.6387 15.901C42.3175 17.85 42.2817 19.8003 43.011 21.6772C43.4533 22.8129 44.2585 23.7616 45.2953 24.3685C45.5145 24.5096 45.6593 24.4899 45.8564 24.2979C46.7167 23.4964 47.5962 22.6905 48.4923 21.8551Z" fill="#FE9400"></path>
      <path d="M23.8837 25.0093L22.0556 23.6306C21.6875 23.3483 21.3319 23.0491 20.9527 22.7937C20.717 22.6356 20.6646 22.4465 20.6646 22.1784C20.6701 18.1686 20.6701 14.1592 20.6646 10.1504C20.6765 9.67994 20.592 9.21217 20.4165 8.77723C20.0994 8.03492 19.5121 7.69057 18.7621 7.57344C18.3734 7.51276 18.0728 7.79782 18.0797 8.21978C18.0976 13.8648 18.0894 19.5097 18.0962 25.1547C18.1067 25.274 18.0837 25.394 18.03 25.5004C17.9763 25.6069 17.8941 25.6955 17.793 25.7559C16.8776 26.3782 15.9773 27.026 14.9806 27.7232V26.9992C14.9806 21.8849 14.9806 16.7705 14.9806 11.6562C14.9924 10.4188 14.7579 9.19195 14.2913 8.05044C13.3262 5.73177 11.4182 4.75518 9.11456 4.88784C6.89775 5.01626 5.36059 6.24969 4.3804 8.20285C3.18789 10.578 3.09277 12.9799 4.54032 15.3042C5.61426 17.0302 7.33753 17.7414 9.29654 17.3223C9.41878 17.296 9.54148 17.2663 9.66463 17.2334C10.0575 17.1332 10.274 17.3138 10.2574 17.7245C10.2574 17.8826 10.1196 17.8981 10.0258 17.9489C8.01167 19.0624 5.96994 19.0045 3.942 18.0307C0.979353 16.6068 -0.158007 13.924 0.0198343 10.736C0.248685 6.63638 3.47327 3.46814 7.30169 2.83308C9.47438 2.47321 11.5533 2.72441 13.5055 3.83365C14.8046 4.5771 15.8882 5.65953 16.6459 6.97084C16.7673 7.17829 16.8334 7.22204 17.0402 7.04705C17.9336 6.29062 18.8476 5.561 19.7478 4.81304C19.8026 4.76343 19.8671 4.72632 19.937 4.70418C20.0069 4.68204 20.0806 4.67538 20.1531 4.68463C21.0916 4.74684 21.9722 5.17035 22.6181 5.87006C22.7863 6.05211 22.88 6.04365 23.0579 5.89547C23.8768 5.21525 24.7122 4.5548 25.5394 3.87458C25.6095 3.80713 25.6959 3.76016 25.7898 3.73857C25.8836 3.71697 25.9814 3.72153 26.0729 3.75178C27.5715 4.17516 28.5696 5.18703 29.2175 6.59122C29.6628 7.55651 29.7855 8.59235 29.7869 9.64655C29.7869 13.773 29.7869 17.8995 29.7938 22.0274C29.7793 23.1884 29.9941 24.3404 30.4252 25.4144C31.0222 26.8482 32.1623 27.407 33.6332 27.0077C33.7794 26.9681 33.9669 26.7974 34.0758 26.9385C34.1978 27.1356 34.2855 27.3528 34.335 27.5806C34.3722 27.7048 34.244 27.7218 34.164 27.7599C31.9251 28.6616 29.5057 28.4655 27.9285 26.3119C27.1372 25.2309 26.787 23.9777 26.612 22.661C26.5545 22.1826 26.5287 21.7007 26.5348 21.2187C26.5348 17.4206 26.5348 13.623 26.5348 9.82578C26.5348 8.85767 26.3404 7.96012 25.6786 7.22063C25.541 7.06277 25.3828 6.92505 25.2085 6.81137C24.4696 6.33436 24.0822 6.40352 23.5252 7.09361C23.4467 7.1924 23.4811 7.26156 23.5156 7.34764C23.874 8.24519 23.9526 9.18225 23.9512 10.1447C23.9439 14.9542 23.9439 19.7633 23.9512 24.5719C23.9686 24.7213 23.9452 24.8727 23.8837 25.0093Z" fill="#FC0303"></path>
      <path d="M64.002 0.222168V2.49003C64.002 4.27666 64.0102 6.0633 63.9937 7.85276C63.9937 8.1717 64.0819 8.24367 64.3797 8.23802C65.3778 8.21827 66.3773 8.22956 67.3768 8.23802C67.7297 8.23802 67.7339 8.23803 67.5436 8.56262C67.2514 9.05373 66.9439 9.53636 66.6613 10.0331C66.6253 10.1119 66.566 10.1772 66.4918 10.2195C66.4175 10.2618 66.3321 10.2791 66.2477 10.2688C65.5818 10.2561 64.9146 10.2688 64.2487 10.2603C64.0557 10.2603 63.9923 10.3154 63.9951 10.5172C64.0199 13.3608 63.9454 16.2059 64.0378 19.0496C64.0385 19.8054 64.2324 20.5478 64.6003 21.2031C64.7294 21.428 64.9256 21.6046 65.16 21.7069C65.2829 21.766 65.4192 21.7893 65.5542 21.7744C65.6891 21.7594 65.8174 21.7068 65.9251 21.6223C66.4421 21.285 66.5772 20.9166 66.5221 20.2618C66.3484 18.1887 66.489 16.1043 66.438 14.0241C66.4254 13.8238 66.4614 13.6234 66.5427 13.4407C66.624 13.2581 66.7481 13.0988 66.9039 12.977C68.1998 11.8184 69.4792 10.64 70.753 9.44888C70.8311 9.35901 70.9368 9.29911 71.0526 9.27909C71.1684 9.25907 71.2874 9.28014 71.39 9.3388C73.3738 10.2025 74.4229 11.721 74.5112 13.931C74.5732 15.4212 74.2823 16.8071 73.3807 18.0151C73.0765 18.3995 72.7071 18.7245 72.2902 18.9748C72.0978 19.1025 71.8694 19.161 71.6409 19.1413C70.9764 19.0947 70.3105 19.0778 69.646 19.0298C69.4434 19.0143 69.4034 19.0721 69.3951 19.2697C69.3634 20.012 69.5206 20.7049 69.9893 21.2694C70.345 21.6928 70.8427 21.9751 71.3583 22.1741C71.8441 22.3511 72.3417 22.4926 72.8472 22.5974C72.9071 22.6131 72.9699 22.6137 73.0301 22.5992C73.0904 22.5847 73.1463 22.5555 73.1932 22.5142C73.7047 22.1345 74.2272 21.7718 74.7262 21.3753C74.9303 21.213 75.0364 21.2342 75.195 21.4289C75.5506 21.8819 75.5575 21.8706 75.1508 22.2489C74.2341 23.0956 73.3145 23.9522 72.4074 24.8173C72.3345 24.897 72.241 24.9539 72.1378 24.9814C72.0345 25.0088 71.9258 25.0058 71.8242 24.9726C70.9419 24.7566 70.0665 24.528 69.2448 24.1258C68.3954 23.7277 67.6691 23.0985 67.1452 22.3067C67.0073 22.0993 66.9591 22.0668 66.7468 22.2587C65.9375 22.9954 65.0924 23.6897 64.2653 24.4137C64.2052 24.4815 64.1225 24.5239 64.0335 24.5325C63.9445 24.5411 63.8556 24.5153 63.7841 24.4603C62.5351 23.7631 61.8293 22.6595 61.4598 21.2864C61.2395 20.4108 61.1333 19.5091 61.1441 18.605C61.1303 15.9491 61.1303 13.2926 61.1441 10.6357C61.1441 10.3125 61.0545 10.2378 60.7594 10.2547C60.492 10.2688 60.1308 10.3874 59.9736 10.1997C59.8358 10.0402 59.9323 9.68454 59.9254 9.415C59.9254 9.36842 59.9254 9.32044 59.9254 9.27387C59.9254 8.94646 59.8234 8.52875 59.9791 8.31565C60.1349 8.10255 60.5788 8.24226 60.8932 8.24367C61.1689 8.24367 61.1358 8.0729 61.1358 7.89932C61.1358 6.11174 61.1358 4.32417 61.1358 2.53659C61.1358 2.40253 61.0848 2.25435 61.2309 2.14991C62.1422 1.52473 63.0383 0.895331 64.002 0.222168ZM69.4048 15.0402C69.4048 15.8616 69.4185 16.6829 69.3965 17.5028C69.3896 17.7964 69.4875 17.85 69.7453 17.8458C69.9587 17.8492 70.1698 17.7997 70.3604 17.7014C70.5511 17.6031 70.7156 17.4589 70.8399 17.2813C71.4947 16.3753 71.5981 15.3451 71.4051 14.2753C71.3338 13.852 71.1735 13.4496 70.9352 13.0961C70.6969 12.7425 70.3864 12.4462 70.0251 12.2276C69.9011 12.1486 69.7797 11.9976 69.595 12.1246C69.5252 12.1744 69.4699 12.2428 69.4352 12.3224C69.4005 12.4019 69.3876 12.4897 69.3979 12.5762C69.4103 13.3989 69.4048 14.2203 69.4048 15.0402Z" fill="#FC0303"></path>
      <path d="M98.895 12.174C99.2962 12.174 99.6588 12.1924 100.02 12.174C100.296 12.1557 100.341 12.2573 100.34 12.5141C100.329 14.3346 100.333 16.1566 100.34 17.9785C100.322 18.7893 100.399 19.5995 100.569 20.3917C100.641 20.7487 100.787 21.0856 100.997 21.3796C101.348 21.8368 101.798 21.8989 102.238 21.5546C102.623 21.2568 103.01 20.9632 103.382 20.6514C103.545 20.5102 103.62 20.5568 103.724 20.7177C104.112 21.3104 104.117 21.3076 103.586 21.7648C102.572 22.6454 101.552 23.5218 100.542 24.4109C100.484 24.4795 100.402 24.5227 100.313 24.5319C100.224 24.5411 100.135 24.5155 100.064 24.4603C99.1497 23.958 98.4228 23.1608 97.9962 22.1924C97.8969 21.9681 97.8418 21.9102 97.6281 22.1148C96.834 22.8868 96.0096 23.6263 95.2114 24.3954C95.1517 24.4709 95.0652 24.519 94.9709 24.5293C94.8766 24.5397 94.7821 24.5113 94.7082 24.4504C93.2744 23.6037 92.3562 22.3336 92.0309 20.7135C91.6807 18.972 91.649 17.1853 92.1067 15.4481C92.4845 14.0143 93.3668 12.9079 94.4242 11.9383C95.4512 10.9928 96.63 10.2448 97.7191 9.3981C98.3408 8.91405 98.946 8.41024 99.3638 7.71309C99.5447 7.42561 99.6614 7.10084 99.7057 6.76191C99.725 6.58268 99.816 6.53329 99.9635 6.49518C100.137 6.45285 100.184 6.56997 100.239 6.68428C100.515 7.23326 100.571 7.83021 100.559 8.4314C100.53 9.86805 100.114 11.1325 98.9695 12.0611C98.9413 12.0963 98.9164 12.1341 98.895 12.174ZM97.322 13.303C97.0463 13.5204 96.8326 13.6784 96.6327 13.8478C95.7532 14.5901 95.0225 15.4495 94.8681 16.6505C94.7384 17.654 94.7482 18.6712 94.897 19.672C94.9715 20.1687 95.0349 20.6598 95.3837 21.0832C95.8235 21.6025 96.2536 21.6872 96.7623 21.2709C96.9608 21.11 97.158 20.9491 97.3606 20.7967C97.4096 20.7676 97.4477 20.7228 97.4692 20.6692C97.4906 20.6156 97.4942 20.5562 97.4792 20.5004C97.2931 19.4193 97.3179 18.3256 97.3193 17.2319C97.3207 15.9562 97.3207 14.6776 97.3207 13.3073L97.322 13.303Z" fill="#FC0303"></path>
      <path d="M89.6112 14.4996C89.534 14.1581 89.5216 13.8392 89.3906 13.5456C89.1069 12.9358 88.6249 12.4459 88.0272 12.1598C87.7515 12.0187 87.5336 12.14 87.5074 12.4604C87.4992 12.5535 87.5074 12.6481 87.5074 12.7426C87.5074 16.5483 87.5074 20.3544 87.5074 24.161C87.5074 24.4898 87.4454 24.6069 87.0939 24.5928C86.3494 24.5618 85.6022 24.5688 84.8564 24.5928C84.5806 24.5999 84.542 24.5082 84.542 24.257C84.5503 20.7317 84.5503 17.2069 84.542 13.6825C84.5368 13.5965 84.5518 13.5104 84.5859 13.4316C84.62 13.3527 84.6721 13.2834 84.7378 13.2295C86.0861 12.0064 87.4298 10.7787 88.7689 9.54617C88.833 9.47496 88.9183 9.42738 89.0115 9.4108C89.1047 9.39422 89.2006 9.40955 89.2845 9.45444C90.7444 10.0274 91.8074 10.9955 92.3174 12.5422C92.3988 12.7864 92.3919 12.9261 92.1382 13.063C91.3042 13.5202 90.4715 14.0099 89.6112 14.4996Z" fill="#FC0303"></path>
      <path d="M81.1781 14.5068C81.1285 14.1229 81.0899 13.7772 80.9286 13.4596C80.6316 12.8839 80.1592 12.4231 79.583 12.1472C79.5352 12.1158 79.4801 12.0979 79.4233 12.0954C79.3665 12.0928 79.3101 12.1056 79.2597 12.1326C79.2094 12.1595 79.1668 12.1996 79.1365 12.2487C79.1061 12.2979 79.0889 12.3544 79.0867 12.4125C79.0798 12.5064 79.0798 12.6008 79.0867 12.6947C79.0867 16.5249 79.0867 20.3545 79.0867 24.1837C79.0867 24.497 79.0219 24.607 78.6979 24.5915C77.9411 24.5647 77.1815 24.5732 76.4246 24.5915C76.1916 24.5915 76.1489 24.5181 76.1489 24.2966C76.1544 20.7487 76.1544 17.2008 76.1489 13.653C76.1455 13.5669 76.1621 13.4812 76.1973 13.4029C76.2325 13.3247 76.2854 13.2561 76.3515 13.2028C77.6906 11.9882 79.0284 10.7693 80.3647 9.54626C80.4286 9.47516 80.5136 9.42764 80.6066 9.41106C80.6996 9.39447 80.7953 9.40975 80.8789 9.45452C82.3513 10.0317 83.417 11.0168 83.9284 12.5776C84.0001 12.7978 83.9919 12.9191 83.763 13.0447C82.8986 13.509 82.0577 14.0044 81.1781 14.5068Z" fill="#FC0303"></path>
      <path d="M34.4722 14.7679C34.4722 16.2949 34.4612 17.8233 34.4722 19.3502C34.4692 20.0212 34.5865 20.6871 34.8183 21.3147C34.9133 21.6063 35.0879 21.8639 35.3215 22.057C35.6468 22.3054 35.9336 22.3054 36.2507 22.057C36.6642 21.7367 37.0778 21.4205 37.4776 21.0903C37.6155 20.9732 37.6913 20.9986 37.7961 21.1439C38.2428 21.7635 38.2455 21.7564 37.6817 22.2419C36.6794 23.1027 35.6758 23.9622 34.6859 24.8371C34.6188 24.9137 34.5262 24.9618 34.4262 24.972C34.3262 24.9822 34.2261 24.9537 34.1455 24.8922C32.7669 24.1245 32.0859 22.8685 31.7633 21.3641C31.6171 20.6751 31.544 19.972 31.5455 19.267C31.5455 16.8462 31.5455 14.4259 31.5455 12.0061C31.5356 11.9041 31.5552 11.8013 31.6017 11.7106C31.6483 11.6198 31.7198 11.5449 31.8074 11.4953C32.5973 10.9745 33.3735 10.4312 34.1593 9.90197C34.2379 9.84834 34.3123 9.71144 34.4199 9.78482C34.5274 9.85821 34.4571 9.97959 34.4571 10.0812C34.4571 11.6439 34.4571 13.2062 34.4571 14.7679H34.4722Z" fill="#FC0303"></path>
      <path d="M18.0059 28.0815C18.3546 28.2227 18.709 28.3638 19.0508 28.5233C19.8561 28.8891 20.6992 29.1604 21.5641 29.3319C22.2587 29.4977 22.9762 29.5383 23.6844 29.4519C23.7671 29.4357 23.8527 29.4464 23.9291 29.4826C24.0055 29.5188 24.0689 29.5786 24.1104 29.6537C25.9398 32.1516 28.3606 33.8211 31.1744 34.9501C32.9716 35.6609 34.8442 36.153 36.7536 36.4163C38.9028 36.7259 41.0774 36.8068 43.2428 36.6577C43.3076 36.6577 43.3724 36.6577 43.5406 36.6577C42.7784 36.8945 42.0007 37.0755 41.2135 37.1996C39.2573 37.5519 37.2651 37.6468 35.2854 37.4818C32.9536 37.2762 30.6639 36.7203 28.4902 35.8321C24.7032 34.2797 21.4441 31.9342 18.6373 28.917C18.3893 28.6747 18.1696 28.4038 17.9824 28.1098C17.991 28.1011 17.9988 28.0916 18.0059 28.0815Z" fill="#FE9400"></path>
      <path d="M47.9747 13.2578C47.9747 14.892 47.9747 16.443 47.9747 17.9939C47.9617 18.8167 48.0124 19.6392 48.1263 20.4537C48.149 20.5311 48.1452 20.6141 48.1156 20.689C48.0861 20.7639 48.0325 20.8262 47.9637 20.8658C47.7527 21.0069 47.5625 21.1805 47.3653 21.3414C46.938 21.69 46.5961 21.6773 46.1811 21.3061C45.9093 21.0485 45.7196 20.7132 45.6366 20.3436C45.3065 19.0415 45.2707 17.6795 45.5318 16.3611C45.7951 14.9527 46.8277 14.0947 47.9747 13.2578Z" fill="#FE9400"></path>
      <path d="M74.8997 6.07754C74.8997 6.18621 74.8211 6.23136 74.7618 6.28499C74.2366 6.80997 73.703 7.32508 73.1819 7.85429C73.0441 7.99542 72.9696 7.95449 72.8552 7.83595C72.3658 7.32508 71.8598 6.82831 71.3773 6.31038C71.2078 6.12833 71.1154 6.1481 70.9513 6.31886C70.4702 6.82267 69.9615 7.29826 69.4776 7.79784C69.3094 7.97001 69.2019 7.97283 69.0406 7.79784C68.5815 7.3039 68.1086 6.82549 67.6289 6.35273C67.4566 6.18338 67.4166 6.07048 67.6165 5.87996C68.1142 5.3945 68.5912 4.89209 69.064 4.37416C69.2102 4.2161 69.3025 4.21047 69.45 4.36429C69.9574 4.8921 70.4826 5.40014 70.9844 5.93218C71.1361 6.09165 71.2229 6.06059 71.3511 5.9237C71.8392 5.41001 72.3368 4.90761 72.8207 4.3911C72.9586 4.23586 73.0537 4.19635 73.2219 4.37416C73.7072 4.88927 74.2159 5.3818 74.7149 5.8842C74.7853 5.94347 74.85 6.01827 74.8997 6.07754Z" fill="#FC0303"></path>
      <path d="M95.6765 34.9092C95.2891 34.8979 94.9073 34.8527 94.5144 34.9515C95.671 35.1575 96.6843 35.5936 97.3557 36.6676C97.2854 36.6902 97.244 36.7184 97.2178 36.7071C96.1301 36.1214 94.9624 36.1426 93.7892 36.2583C92.6422 36.3726 91.5448 36.2583 90.5412 35.6247C90.1571 35.3887 89.8278 35.0699 89.5762 34.6904C90.8376 34.4265 92.0577 34.0031 93.3522 34.1654C94.169 34.2453 94.9607 34.4986 95.6765 34.9092Z" fill="#FC0303"></path>
      <path d="M33.1632 4.68031C33.2018 4.71559 33.2542 4.75934 33.301 4.80732C33.8235 5.3323 34.3447 5.85868 34.8685 6.38084C34.9761 6.4881 35.0588 6.56854 34.903 6.71672C34.3681 7.22853 33.8405 7.74599 33.3203 8.26909C33.1825 8.41021 33.086 8.43138 32.9343 8.26909C32.4518 7.75352 31.9592 7.24782 31.4565 6.752C31.2993 6.59677 31.3186 6.50081 31.4565 6.35545C31.9665 5.83611 32.4684 5.30548 32.9729 4.7805C33.0239 4.74804 33.0598 4.67043 33.1632 4.68031Z" fill="#FC0303"></path>
      <path d="M17.9799 28.1054L17.9316 28.0659C17.9661 28.0249 17.9882 28.0461 18.0061 28.0814C17.998 28.0901 17.9893 28.0981 17.9799 28.1054Z" fill="#FE9400"></path>
    </g>
    <defs>
      <clipPath id="clip0_2149_507">
        <rect width="104" height="42" fill="white" transform="translate(0 0.222168)"></rect>
      </clipPath>
    </defs>
  </symbol>
  <symbol id="logo-white" xmlns="http://www.w3.org/2000/svg" viewBox="0 0 104 43">
    <g clip-path="url(#clip0_2149_507)">
      <path d="M89.1129 34.3065C88.4525 34.1894 87.8225 34.037 87.1828 33.9227C85.4032 33.625 83.5943 33.5558 81.7979 33.7166C77.3864 34.0582 73.1126 35.1674 68.8624 36.3331C65.3538 37.2941 61.8562 38.2919 58.3463 39.2431C55.0376 40.1406 51.6958 40.9239 48.3251 41.5589C45.8836 42.019 43.4228 42.2942 40.9344 42.2053C38.3882 42.1295 35.8637 41.7023 33.4292 40.9352C30.656 40.0506 28.0466 38.6979 25.7089 36.9329C24.8768 36.3064 24.0865 35.6237 23.3432 34.8894C22.9297 34.466 22.534 34.0271 22.1094 33.5727C22.2955 33.5078 22.3658 33.639 22.4526 33.7053C24.2322 35.0748 26.1876 36.187 28.2635 37.0105C31.3526 38.21 34.6633 38.692 37.9566 38.4217C40.9371 38.2002 43.8157 37.496 46.6418 36.542C50.4248 35.2718 54.0381 33.5685 57.6542 31.8848C58.8192 31.3387 59.9979 30.8165 61.1573 30.2633C62.8916 29.4363 64.6355 28.6404 66.4195 27.9432C68.9644 26.9355 71.6903 26.4962 74.4146 26.6546C77.1389 26.8131 79.7986 27.5656 82.2156 28.862C84.4887 30.0501 86.5627 31.6007 88.3601 33.4556C88.6207 33.7279 88.8619 34.0229 89.1129 34.3065Z" fill="#FFF"></path>
      <path d="M48.4923 21.8551C48.6137 22.102 48.7115 22.3264 48.8301 22.5381C49.2612 23.3269 49.8992 23.9765 50.6719 24.4137C50.8801 24.5322 51.0069 24.5012 51.182 24.3473C52.2629 23.3999 53.3515 22.4591 54.448 21.5248C54.6341 21.3668 54.6906 21.2327 54.521 21.038C54.483 20.9935 54.4522 20.943 54.43 20.8884C54.2798 20.561 54.113 20.5483 53.8496 20.7966C53.5367 21.0734 53.21 21.3334 52.8708 21.5756C52.3952 21.9369 51.8975 21.8438 51.5543 21.3372C51.1517 20.7458 51.0442 20.067 51.0028 19.3699C50.8512 17.1119 50.9642 14.8539 50.9435 12.5959C50.9435 12.284 50.8787 12.1598 50.5534 12.1895C50.2046 12.2205 49.8517 12.1895 49.3953 12.1895C50.7381 11.1762 51.2827 9.84115 51.4247 8.3029C51.5667 6.76464 51.2868 5.33929 50.0943 4.16373C50.6866 4.23144 51.2675 4.37951 51.8217 4.60404C53.6373 5.27438 55.2131 6.33281 56.447 7.84989C57.2741 8.87305 58.0227 9.96677 58.4515 11.2482C58.8899 12.5606 59.2345 13.8985 59.1408 15.2914C59.0622 16.5446 59.0029 17.809 58.5576 19.0114C57.9524 20.6259 57.1101 22.0752 55.9093 23.303C53.3846 25.8799 50.8654 28.463 48.3517 31.0521C48.1601 31.2497 48.0567 31.2906 47.8416 31.0691C45.6359 28.8012 43.4301 26.5531 41.2243 24.2852C40.4688 23.5062 39.6789 22.7597 39.0599 21.848C37.298 19.2485 36.6363 16.3851 37.2042 13.2846C37.9776 9.05086 40.415 6.18462 44.3082 4.61673C45.7461 4.03812 47.2654 3.88289 48.8053 3.95487C49.1306 3.97039 49.394 4.03249 49.5759 4.39941C49.7579 4.76634 50.0157 5.07257 50.1674 5.44796C50.5809 6.48522 50.3424 7.3997 49.6366 8.21681C48.8508 9.12424 47.8596 9.76918 46.9042 10.4593C45.8606 11.2129 44.8514 12.0116 44.0174 12.9995C43.3059 13.8185 42.8289 14.8225 42.6387 15.901C42.3175 17.85 42.2817 19.8003 43.011 21.6772C43.4533 22.8129 44.2585 23.7616 45.2953 24.3685C45.5145 24.5096 45.6593 24.4899 45.8564 24.2979C46.7167 23.4964 47.5962 22.6905 48.4923 21.8551Z" fill="#FFF"></path>
      <path d="M23.8837 25.0093L22.0556 23.6306C21.6875 23.3483 21.3319 23.0491 20.9527 22.7937C20.717 22.6356 20.6646 22.4465 20.6646 22.1784C20.6701 18.1686 20.6701 14.1592 20.6646 10.1504C20.6765 9.67994 20.592 9.21217 20.4165 8.77723C20.0994 8.03492 19.5121 7.69057 18.7621 7.57344C18.3734 7.51276 18.0728 7.79782 18.0797 8.21978C18.0976 13.8648 18.0894 19.5097 18.0962 25.1547C18.1067 25.274 18.0837 25.394 18.03 25.5004C17.9763 25.6069 17.8941 25.6955 17.793 25.7559C16.8776 26.3782 15.9773 27.026 14.9806 27.7232V26.9992C14.9806 21.8849 14.9806 16.7705 14.9806 11.6562C14.9924 10.4188 14.7579 9.19195 14.2913 8.05044C13.3262 5.73177 11.4182 4.75518 9.11456 4.88784C6.89775 5.01626 5.36059 6.24969 4.3804 8.20285C3.18789 10.578 3.09277 12.9799 4.54032 15.3042C5.61426 17.0302 7.33753 17.7414 9.29654 17.3223C9.41878 17.296 9.54148 17.2663 9.66463 17.2334C10.0575 17.1332 10.274 17.3138 10.2574 17.7245C10.2574 17.8826 10.1196 17.8981 10.0258 17.9489C8.01167 19.0624 5.96994 19.0045 3.942 18.0307C0.979353 16.6068 -0.158007 13.924 0.0198343 10.736C0.248685 6.63638 3.47327 3.46814 7.30169 2.83308C9.47438 2.47321 11.5533 2.72441 13.5055 3.83365C14.8046 4.5771 15.8882 5.65953 16.6459 6.97084C16.7673 7.17829 16.8334 7.22204 17.0402 7.04705C17.9336 6.29062 18.8476 5.561 19.7478 4.81304C19.8026 4.76343 19.8671 4.72632 19.937 4.70418C20.0069 4.68204 20.0806 4.67538 20.1531 4.68463C21.0916 4.74684 21.9722 5.17035 22.6181 5.87006C22.7863 6.05211 22.88 6.04365 23.0579 5.89547C23.8768 5.21525 24.7122 4.5548 25.5394 3.87458C25.6095 3.80713 25.6959 3.76016 25.7898 3.73857C25.8836 3.71697 25.9814 3.72153 26.0729 3.75178C27.5715 4.17516 28.5696 5.18703 29.2175 6.59122C29.6628 7.55651 29.7855 8.59235 29.7869 9.64655C29.7869 13.773 29.7869 17.8995 29.7938 22.0274C29.7793 23.1884 29.9941 24.3404 30.4252 25.4144C31.0222 26.8482 32.1623 27.407 33.6332 27.0077C33.7794 26.9681 33.9669 26.7974 34.0758 26.9385C34.1978 27.1356 34.2855 27.3528 34.335 27.5806C34.3722 27.7048 34.244 27.7218 34.164 27.7599C31.9251 28.6616 29.5057 28.4655 27.9285 26.3119C27.1372 25.2309 26.787 23.9777 26.612 22.661C26.5545 22.1826 26.5287 21.7007 26.5348 21.2187C26.5348 17.4206 26.5348 13.623 26.5348 9.82578C26.5348 8.85767 26.3404 7.96012 25.6786 7.22063C25.541 7.06277 25.3828 6.92505 25.2085 6.81137C24.4696 6.33436 24.0822 6.40352 23.5252 7.09361C23.4467 7.1924 23.4811 7.26156 23.5156 7.34764C23.874 8.24519 23.9526 9.18225 23.9512 10.1447C23.9439 14.9542 23.9439 19.7633 23.9512 24.5719C23.9686 24.7213 23.9452 24.8727 23.8837 25.0093Z" fill="#FFF"></path>
      <path d="M64.002 0.222168V2.49003C64.002 4.27666 64.0102 6.0633 63.9937 7.85276C63.9937 8.1717 64.0819 8.24367 64.3797 8.23802C65.3778 8.21827 66.3773 8.22956 67.3768 8.23802C67.7297 8.23802 67.7339 8.23803 67.5436 8.56262C67.2514 9.05373 66.9439 9.53636 66.6613 10.0331C66.6253 10.1119 66.566 10.1772 66.4918 10.2195C66.4175 10.2618 66.3321 10.2791 66.2477 10.2688C65.5818 10.2561 64.9146 10.2688 64.2487 10.2603C64.0557 10.2603 63.9923 10.3154 63.9951 10.5172C64.0199 13.3608 63.9454 16.2059 64.0378 19.0496C64.0385 19.8054 64.2324 20.5478 64.6003 21.2031C64.7294 21.428 64.9256 21.6046 65.16 21.7069C65.2829 21.766 65.4192 21.7893 65.5542 21.7744C65.6891 21.7594 65.8174 21.7068 65.9251 21.6223C66.4421 21.285 66.5772 20.9166 66.5221 20.2618C66.3484 18.1887 66.489 16.1043 66.438 14.0241C66.4254 13.8238 66.4614 13.6234 66.5427 13.4407C66.624 13.2581 66.7481 13.0988 66.9039 12.977C68.1998 11.8184 69.4792 10.64 70.753 9.44888C70.8311 9.35901 70.9368 9.29911 71.0526 9.27909C71.1684 9.25907 71.2874 9.28014 71.39 9.3388C73.3738 10.2025 74.4229 11.721 74.5112 13.931C74.5732 15.4212 74.2823 16.8071 73.3807 18.0151C73.0765 18.3995 72.7071 18.7245 72.2902 18.9748C72.0978 19.1025 71.8694 19.161 71.6409 19.1413C70.9764 19.0947 70.3105 19.0778 69.646 19.0298C69.4434 19.0143 69.4034 19.0721 69.3951 19.2697C69.3634 20.012 69.5206 20.7049 69.9893 21.2694C70.345 21.6928 70.8427 21.9751 71.3583 22.1741C71.8441 22.3511 72.3417 22.4926 72.8472 22.5974C72.9071 22.6131 72.9699 22.6137 73.0301 22.5992C73.0904 22.5847 73.1463 22.5555 73.1932 22.5142C73.7047 22.1345 74.2272 21.7718 74.7262 21.3753C74.9303 21.213 75.0364 21.2342 75.195 21.4289C75.5506 21.8819 75.5575 21.8706 75.1508 22.2489C74.2341 23.0956 73.3145 23.9522 72.4074 24.8173C72.3345 24.897 72.241 24.9539 72.1378 24.9814C72.0345 25.0088 71.9258 25.0058 71.8242 24.9726C70.9419 24.7566 70.0665 24.528 69.2448 24.1258C68.3954 23.7277 67.6691 23.0985 67.1452 22.3067C67.0073 22.0993 66.9591 22.0668 66.7468 22.2587C65.9375 22.9954 65.0924 23.6897 64.2653 24.4137C64.2052 24.4815 64.1225 24.5239 64.0335 24.5325C63.9445 24.5411 63.8556 24.5153 63.7841 24.4603C62.5351 23.7631 61.8293 22.6595 61.4598 21.2864C61.2395 20.4108 61.1333 19.5091 61.1441 18.605C61.1303 15.9491 61.1303 13.2926 61.1441 10.6357C61.1441 10.3125 61.0545 10.2378 60.7594 10.2547C60.492 10.2688 60.1308 10.3874 59.9736 10.1997C59.8358 10.0402 59.9323 9.68454 59.9254 9.415C59.9254 9.36842 59.9254 9.32044 59.9254 9.27387C59.9254 8.94646 59.8234 8.52875 59.9791 8.31565C60.1349 8.10255 60.5788 8.24226 60.8932 8.24367C61.1689 8.24367 61.1358 8.0729 61.1358 7.89932C61.1358 6.11174 61.1358 4.32417 61.1358 2.53659C61.1358 2.40253 61.0848 2.25435 61.2309 2.14991C62.1422 1.52473 63.0383 0.895331 64.002 0.222168ZM69.4048 15.0402C69.4048 15.8616 69.4185 16.6829 69.3965 17.5028C69.3896 17.7964 69.4875 17.85 69.7453 17.8458C69.9587 17.8492 70.1698 17.7997 70.3604 17.7014C70.5511 17.6031 70.7156 17.4589 70.8399 17.2813C71.4947 16.3753 71.5981 15.3451 71.4051 14.2753C71.3338 13.852 71.1735 13.4496 70.9352 13.0961C70.6969 12.7425 70.3864 12.4462 70.0251 12.2276C69.9011 12.1486 69.7797 11.9976 69.595 12.1246C69.5252 12.1744 69.4699 12.2428 69.4352 12.3224C69.4005 12.4019 69.3876 12.4897 69.3979 12.5762C69.4103 13.3989 69.4048 14.2203 69.4048 15.0402Z" fill="#FFF"></path>
      <path d="M98.895 12.174C99.2962 12.174 99.6588 12.1924 100.02 12.174C100.296 12.1557 100.341 12.2573 100.34 12.5141C100.329 14.3346 100.333 16.1566 100.34 17.9785C100.322 18.7893 100.399 19.5995 100.569 20.3917C100.641 20.7487 100.787 21.0856 100.997 21.3796C101.348 21.8368 101.798 21.8989 102.238 21.5546C102.623 21.2568 103.01 20.9632 103.382 20.6514C103.545 20.5102 103.62 20.5568 103.724 20.7177C104.112 21.3104 104.117 21.3076 103.586 21.7648C102.572 22.6454 101.552 23.5218 100.542 24.4109C100.484 24.4795 100.402 24.5227 100.313 24.5319C100.224 24.5411 100.135 24.5155 100.064 24.4603C99.1497 23.958 98.4228 23.1608 97.9962 22.1924C97.8969 21.9681 97.8418 21.9102 97.6281 22.1148C96.834 22.8868 96.0096 23.6263 95.2114 24.3954C95.1517 24.4709 95.0652 24.519 94.9709 24.5293C94.8766 24.5397 94.7821 24.5113 94.7082 24.4504C93.2744 23.6037 92.3562 22.3336 92.0309 20.7135C91.6807 18.972 91.649 17.1853 92.1067 15.4481C92.4845 14.0143 93.3668 12.9079 94.4242 11.9383C95.4512 10.9928 96.63 10.2448 97.7191 9.3981C98.3408 8.91405 98.946 8.41024 99.3638 7.71309C99.5447 7.42561 99.6614 7.10084 99.7057 6.76191C99.725 6.58268 99.816 6.53329 99.9635 6.49518C100.137 6.45285 100.184 6.56997 100.239 6.68428C100.515 7.23326 100.571 7.83021 100.559 8.4314C100.53 9.86805 100.114 11.1325 98.9695 12.0611C98.9413 12.0963 98.9164 12.1341 98.895 12.174ZM97.322 13.303C97.0463 13.5204 96.8326 13.6784 96.6327 13.8478C95.7532 14.5901 95.0225 15.4495 94.8681 16.6505C94.7384 17.654 94.7482 18.6712 94.897 19.672C94.9715 20.1687 95.0349 20.6598 95.3837 21.0832C95.8235 21.6025 96.2536 21.6872 96.7623 21.2709C96.9608 21.11 97.158 20.9491 97.3606 20.7967C97.4096 20.7676 97.4477 20.7228 97.4692 20.6692C97.4906 20.6156 97.4942 20.5562 97.4792 20.5004C97.2931 19.4193 97.3179 18.3256 97.3193 17.2319C97.3207 15.9562 97.3207 14.6776 97.3207 13.3073L97.322 13.303Z" fill="#FFF"></path>
      <path d="M89.6112 14.4996C89.534 14.1581 89.5216 13.8392 89.3906 13.5456C89.1069 12.9358 88.6249 12.4459 88.0272 12.1598C87.7515 12.0187 87.5336 12.14 87.5074 12.4604C87.4992 12.5535 87.5074 12.6481 87.5074 12.7426C87.5074 16.5483 87.5074 20.3544 87.5074 24.161C87.5074 24.4898 87.4454 24.6069 87.0939 24.5928C86.3494 24.5618 85.6022 24.5688 84.8564 24.5928C84.5806 24.5999 84.542 24.5082 84.542 24.257C84.5503 20.7317 84.5503 17.2069 84.542 13.6825C84.5368 13.5965 84.5518 13.5104 84.5859 13.4316C84.62 13.3527 84.6721 13.2834 84.7378 13.2295C86.0861 12.0064 87.4298 10.7787 88.7689 9.54617C88.833 9.47496 88.9183 9.42738 89.0115 9.4108C89.1047 9.39422 89.2006 9.40955 89.2845 9.45444C90.7444 10.0274 91.8074 10.9955 92.3174 12.5422C92.3988 12.7864 92.3919 12.9261 92.1382 13.063C91.3042 13.5202 90.4715 14.0099 89.6112 14.4996Z" fill="#FFF"></path>
      <path d="M81.1781 14.5068C81.1285 14.1229 81.0899 13.7772 80.9286 13.4596C80.6316 12.8839 80.1592 12.4231 79.583 12.1472C79.5352 12.1158 79.4801 12.0979 79.4233 12.0954C79.3665 12.0928 79.3101 12.1056 79.2597 12.1326C79.2094 12.1595 79.1668 12.1996 79.1365 12.2487C79.1061 12.2979 79.0889 12.3544 79.0867 12.4125C79.0798 12.5064 79.0798 12.6008 79.0867 12.6947C79.0867 16.5249 79.0867 20.3545 79.0867 24.1837C79.0867 24.497 79.0219 24.607 78.6979 24.5915C77.9411 24.5647 77.1815 24.5732 76.4246 24.5915C76.1916 24.5915 76.1489 24.5181 76.1489 24.2966C76.1544 20.7487 76.1544 17.2008 76.1489 13.653C76.1455 13.5669 76.1621 13.4812 76.1973 13.4029C76.2325 13.3247 76.2854 13.2561 76.3515 13.2028C77.6906 11.9882 79.0284 10.7693 80.3647 9.54626C80.4286 9.47516 80.5136 9.42764 80.6066 9.41106C80.6996 9.39447 80.7953 9.40975 80.8789 9.45452C82.3513 10.0317 83.417 11.0168 83.9284 12.5776C84.0001 12.7978 83.9919 12.9191 83.763 13.0447C82.8986 13.509 82.0577 14.0044 81.1781 14.5068Z" fill="#FFF"></path>
      <path d="M34.4722 14.7679C34.4722 16.2949 34.4612 17.8233 34.4722 19.3502C34.4692 20.0212 34.5865 20.6871 34.8183 21.3147C34.9133 21.6063 35.0879 21.8639 35.3215 22.057C35.6468 22.3054 35.9336 22.3054 36.2507 22.057C36.6642 21.7367 37.0778 21.4205 37.4776 21.0903C37.6155 20.9732 37.6913 20.9986 37.7961 21.1439C38.2428 21.7635 38.2455 21.7564 37.6817 22.2419C36.6794 23.1027 35.6758 23.9622 34.6859 24.8371C34.6188 24.9137 34.5262 24.9618 34.4262 24.972C34.3262 24.9822 34.2261 24.9537 34.1455 24.8922C32.7669 24.1245 32.0859 22.8685 31.7633 21.3641C31.6171 20.6751 31.544 19.972 31.5455 19.267C31.5455 16.8462 31.5455 14.4259 31.5455 12.0061C31.5356 11.9041 31.5552 11.8013 31.6017 11.7106C31.6483 11.6198 31.7198 11.5449 31.8074 11.4953C32.5973 10.9745 33.3735 10.4312 34.1593 9.90197C34.2379 9.84834 34.3123 9.71144 34.4199 9.78482C34.5274 9.85821 34.4571 9.97959 34.4571 10.0812C34.4571 11.6439 34.4571 13.2062 34.4571 14.7679H34.4722Z" fill="#FFF"></path>
      <path d="M18.0059 28.0815C18.3546 28.2227 18.709 28.3638 19.0508 28.5233C19.8561 28.8891 20.6992 29.1604 21.5641 29.3319C22.2587 29.4977 22.9762 29.5383 23.6844 29.4519C23.7671 29.4357 23.8527 29.4464 23.9291 29.4826C24.0055 29.5188 24.0689 29.5786 24.1104 29.6537C25.9398 32.1516 28.3606 33.8211 31.1744 34.9501C32.9716 35.6609 34.8442 36.153 36.7536 36.4163C38.9028 36.7259 41.0774 36.8068 43.2428 36.6577C43.3076 36.6577 43.3724 36.6577 43.5406 36.6577C42.7784 36.8945 42.0007 37.0755 41.2135 37.1996C39.2573 37.5519 37.2651 37.6468 35.2854 37.4818C32.9536 37.2762 30.6639 36.7203 28.4902 35.8321C24.7032 34.2797 21.4441 31.9342 18.6373 28.917C18.3893 28.6747 18.1696 28.4038 17.9824 28.1098C17.991 28.1011 17.9988 28.0916 18.0059 28.0815Z" fill="#FFF"></path>
      <path d="M47.9747 13.2578C47.9747 14.892 47.9747 16.443 47.9747 17.9939C47.9617 18.8167 48.0124 19.6392 48.1263 20.4537C48.149 20.5311 48.1452 20.6141 48.1156 20.689C48.0861 20.7639 48.0325 20.8262 47.9637 20.8658C47.7527 21.0069 47.5625 21.1805 47.3653 21.3414C46.938 21.69 46.5961 21.6773 46.1811 21.3061C45.9093 21.0485 45.7196 20.7132 45.6366 20.3436C45.3065 19.0415 45.2707 17.6795 45.5318 16.3611C45.7951 14.9527 46.8277 14.0947 47.9747 13.2578Z" fill="#FFF"></path>
      <path d="M74.8997 6.07754C74.8997 6.18621 74.8211 6.23136 74.7618 6.28499C74.2366 6.80997 73.703 7.32508 73.1819 7.85429C73.0441 7.99542 72.9696 7.95449 72.8552 7.83595C72.3658 7.32508 71.8598 6.82831 71.3773 6.31038C71.2078 6.12833 71.1154 6.1481 70.9513 6.31886C70.4702 6.82267 69.9615 7.29826 69.4776 7.79784C69.3094 7.97001 69.2019 7.97283 69.0406 7.79784C68.5815 7.3039 68.1086 6.82549 67.6289 6.35273C67.4566 6.18338 67.4166 6.07048 67.6165 5.87996C68.1142 5.3945 68.5912 4.89209 69.064 4.37416C69.2102 4.2161 69.3025 4.21047 69.45 4.36429C69.9574 4.8921 70.4826 5.40014 70.9844 5.93218C71.1361 6.09165 71.2229 6.06059 71.3511 5.9237C71.8392 5.41001 72.3368 4.90761 72.8207 4.3911C72.9586 4.23586 73.0537 4.19635 73.2219 4.37416C73.7072 4.88927 74.2159 5.3818 74.7149 5.8842C74.7853 5.94347 74.85 6.01827 74.8997 6.07754Z" fill="#FFF"></path>
      <path d="M95.6765 34.9092C95.2891 34.8979 94.9073 34.8527 94.5144 34.9515C95.671 35.1575 96.6843 35.5936 97.3557 36.6676C97.2854 36.6902 97.244 36.7184 97.2178 36.7071C96.1301 36.1214 94.9624 36.1426 93.7892 36.2583C92.6422 36.3726 91.5448 36.2583 90.5412 35.6247C90.1571 35.3887 89.8278 35.0699 89.5762 34.6904C90.8376 34.4265 92.0577 34.0031 93.3522 34.1654C94.169 34.2453 94.9607 34.4986 95.6765 34.9092Z" fill="#FFF"></path>
      <path d="M33.1632 4.68031C33.2018 4.71559 33.2542 4.75934 33.301 4.80732C33.8235 5.3323 34.3447 5.85868 34.8685 6.38084C34.9761 6.4881 35.0588 6.56854 34.903 6.71672C34.3681 7.22853 33.8405 7.74599 33.3203 8.26909C33.1825 8.41021 33.086 8.43138 32.9343 8.26909C32.4518 7.75352 31.9592 7.24782 31.4565 6.752C31.2993 6.59677 31.3186 6.50081 31.4565 6.35545C31.9665 5.83611 32.4684 5.30548 32.9729 4.7805C33.0239 4.74804 33.0598 4.67043 33.1632 4.68031Z" fill="#FFF"></path>
      <path d="M17.9799 28.1054L17.9316 28.0659C17.9661 28.0249 17.9882 28.0461 18.0061 28.0814C17.998 28.0901 17.9893 28.0981 17.9799 28.1054Z" fill="#FFF"></path>
    </g>
    <defs>
      <clipPath id="clip0_2149_507">
        <rect width="104" height="42" fill="white" transform="translate(0 0.222168)"></rect>
      </clipPath>
    </defs>
  </symbol>
</svg>