<svg width="58" height="51" viewBox="0 0 58 51" fill="none" xmlns="http://www.w3.org/2000/svg">
<path d="M56.7154 17.5286H54.2416L54.5596 16.7571C54.9199 15.8881 55.0138 14.9316 54.8296 14.0091C54.6453 13.0866 54.1911 12.2396 53.5246 11.5757L51.3321 9.38267V6.7149C51.3321 6.50935 51.2504 6.31223 51.1051 6.16689C50.9597 6.02155 50.7626 5.9399 50.5571 5.9399C50.3515 5.9399 50.1544 6.02155 50.0091 6.16689C49.8637 6.31223 49.7821 6.50935 49.7821 6.7149V9.38311L47.589 11.5761C46.9226 12.2401 46.4684 13.0871 46.2841 14.0096C46.0998 14.9321 46.1938 15.8886 46.5541 16.7576L46.872 17.529H44.3987C44.1931 17.529 43.996 17.6107 43.8507 17.756C43.7053 17.9014 43.6237 18.0985 43.6237 18.304V22.9062C43.6237 23.1118 43.7053 23.3089 43.8507 23.4542C43.996 23.5996 44.1931 23.6812 44.3987 23.6812H46.1976V28.6917H42.7654V25.7578C42.7653 25.5523 42.6836 25.3552 42.5383 25.2099C42.393 25.0646 42.1959 24.9829 41.9904 24.9828H40.3519C41.3802 23.4364 41.9119 21.6129 41.8759 19.7561C41.8399 17.8993 41.2379 16.0978 40.1504 14.5924C38.3332 12.0667 35.7788 10.1653 32.8379 9.14928L31.9841 8.84371C32.3323 8.09 32.4977 7.26476 32.4669 6.43507C32.4362 5.60538 32.21 4.79466 31.8069 4.06882L29.8238 0.522864C29.7566 0.402523 29.6585 0.302296 29.5396 0.232527C29.4207 0.162759 29.2854 0.125977 29.1476 0.125977C29.0097 0.125977 28.8744 0.162759 28.7555 0.232527C28.6366 0.302296 28.5385 0.402523 28.4713 0.522864L26.4878 4.06882C26.0847 4.79466 25.8585 5.60538 25.8277 6.43507C25.797 7.26476 25.9624 8.09 26.3106 8.84371L25.4568 9.14928C22.5165 10.1656 19.9628 12.067 18.1461 14.5924C17.0584 16.0977 16.4562 17.8991 16.42 19.7559C16.3838 21.6126 16.9152 23.4362 17.9433 24.9828H16.3047C16.0992 24.9829 15.9021 25.0646 15.7568 25.2099C15.6115 25.3552 15.5298 25.5523 15.5297 25.7578V28.6917H12.0976V23.6821H13.8969C13.9987 23.682 14.0995 23.6619 14.1936 23.6229C14.2877 23.5839 14.3731 23.5267 14.4451 23.4547C14.517 23.3826 14.5741 23.2971 14.613 23.203C14.6519 23.1089 14.6719 23.008 14.6719 22.9062V18.3005C14.6718 18.095 14.5901 17.8979 14.4448 17.7526C14.2994 17.6073 14.1024 17.5256 13.8969 17.5255H11.4226L11.7411 16.754C12.1013 15.885 12.1952 14.9286 12.0109 14.006C11.8267 13.0835 11.3725 12.2366 10.7061 11.5726L8.51306 9.37957V6.7149C8.51306 6.50935 8.43141 6.31223 8.28607 6.16689C8.14073 6.02155 7.94361 5.9399 7.73806 5.9399C7.53252 5.9399 7.3354 6.02155 7.19005 6.16689C7.04471 6.31223 6.96306 6.50935 6.96306 6.7149V9.38311L4.77048 11.5761C4.10401 12.2401 3.64982 13.0871 3.46555 14.0096C3.28128 14.9321 3.37525 15.8886 3.73552 16.7576L4.05349 17.529H1.57969C1.37426 17.5292 1.17727 17.6108 1.03197 17.756C0.886663 17.9012 0.804922 18.0982 0.804688 18.3036V22.9062C0.804805 23.1117 0.886494 23.3088 1.03181 23.4541C1.17712 23.5994 1.37418 23.6811 1.57969 23.6812H3.37902V50.2248C3.37902 50.4303 3.46067 50.6274 3.60601 50.7728C3.75135 50.9181 3.94848 50.9998 4.15402 50.9998H54.1411C54.3466 50.9998 54.5438 50.9181 54.6891 50.7728C54.8345 50.6274 54.9161 50.4303 54.9161 50.2248V23.6821H56.7154C56.8173 23.682 56.9181 23.6619 57.0122 23.6229C57.1062 23.5839 57.1917 23.5267 57.2636 23.4547C57.3356 23.3826 57.3927 23.2971 57.4316 23.203C57.4705 23.1089 57.4905 23.008 57.4904 22.9062V18.3005C57.4895 18.0955 57.4075 17.8993 57.2622 17.7546C57.117 17.61 56.9204 17.5287 56.7154 17.5286ZM47.9867 16.1664C47.744 15.5803 47.6808 14.9353 47.8051 14.3132C47.9295 13.6911 48.2357 13.12 48.6851 12.6722L50.5571 10.8003L52.429 12.6722C52.8784 13.12 53.1847 13.6911 53.3089 14.3132C53.4332 14.9353 53.3699 15.5803 53.127 16.1664L52.565 17.5286H48.5487L47.9867 16.1664ZM27.8407 4.82522L29.1476 2.49048L30.4544 4.827C30.7507 5.35959 30.9116 5.95682 30.923 6.56617C30.9343 7.17552 30.7958 7.77833 30.5195 8.32158L29.4084 7.92301C29.2397 7.8628 29.0554 7.8628 28.8867 7.92301L27.7756 8.32158C27.499 7.7781 27.3603 7.17497 27.3717 6.56528C27.383 5.95559 27.5441 5.35804 27.8407 4.82522ZM19.4193 15.4764C21.0515 13.2162 23.3427 11.5161 25.9789 10.6089L29.1476 9.47523L32.3162 10.6089C34.9524 11.5161 37.2436 13.2162 38.8758 15.4764C39.8831 16.8794 40.3873 18.5813 40.3069 20.3066C40.2266 22.0318 39.5663 23.6795 38.433 24.9828H19.8631C18.7296 23.6796 18.0691 22.032 17.9886 20.3067C17.9081 18.5815 18.4122 16.8795 19.4193 15.4764ZM17.0797 26.5328H41.2154V28.6917H17.0797V26.5328ZM5.16816 16.1664C4.92526 15.5803 4.86193 14.9353 4.98619 14.3132C5.11045 13.6911 5.41671 13.12 5.86611 12.6722L7.73806 10.8003L9.61002 12.6722C10.0594 13.12 10.3657 13.6911 10.4899 14.3132C10.6142 14.9353 10.5509 15.5803 10.308 16.1664L9.74642 17.5286H5.73015L5.16816 16.1664ZM2.35469 19.0786H13.1219V22.1343H2.35469V19.0786ZM4.92902 23.6843H10.5476V49.4529H4.92902V23.6843ZM12.0976 30.2417H46.1976V49.4506H44.7428V43.5983C44.7415 42.8306 44.5834 42.0712 44.278 41.3668C43.9726 40.6625 43.5264 40.028 42.9669 39.5023L41.2668 37.9102C41.1231 37.776 40.9338 37.7013 40.7371 37.7013C40.5405 37.7013 40.3512 37.776 40.2075 37.9102L38.5074 39.5023C37.9478 40.028 37.5017 40.6625 37.1963 41.3668C36.8909 42.0712 36.7327 42.8306 36.7315 43.5983V49.4506H34.6558V40.5169C34.6541 39.4414 34.4326 38.3775 34.0047 37.3908C33.5769 36.404 32.9518 35.5151 32.1678 34.7788L29.679 32.4467C29.5354 32.3122 29.346 32.2375 29.1493 32.2375C28.9526 32.2375 28.7633 32.3122 28.6197 32.4467L26.1273 34.7788C25.3434 35.5152 24.7184 36.404 24.2906 37.3908C23.8628 38.3776 23.6413 39.4414 23.6397 40.5169V49.4506H21.5636V43.5983C21.5624 42.8306 21.4042 42.0712 21.0988 41.3668C20.7934 40.6625 20.3473 40.028 19.7878 39.5023L18.0876 37.9102C17.9439 37.776 17.7546 37.7013 17.558 37.7013C17.3613 37.7013 17.172 37.776 17.0283 37.9102L15.3304 39.5023C14.7709 40.028 14.3247 40.6625 14.0194 41.3668C13.714 42.0712 13.5558 42.8306 13.5546 43.5983V49.4506H12.0976V30.2417ZM15.1023 49.4506V43.5983C15.103 43.0427 15.2172 42.4931 15.4381 41.9833C15.6589 41.4735 15.9817 41.0142 16.3866 40.6338L17.5567 39.5377L18.7267 40.6338C19.1316 41.0142 19.4544 41.4735 19.6752 41.9833C19.8961 42.4931 20.0103 43.0427 20.011 43.5983V49.4506H15.1023ZM25.1897 49.4506V40.5169C25.1911 39.6536 25.3689 38.7997 25.7123 38.0077C26.0557 37.2157 26.5574 36.5022 27.1866 35.9112L29.1476 34.0742L31.1085 35.9103C31.7378 36.5013 32.2396 37.2147 32.583 38.0068C32.9265 38.7988 33.1044 39.6527 33.1058 40.516V49.4498L25.1897 49.4506ZM38.2815 49.4506V43.5983C38.2821 43.0427 38.3964 42.4931 38.6172 41.9833C38.8381 41.4735 39.1609 41.0142 39.5658 40.6338L40.7358 39.5377L41.9063 40.6338C42.3112 41.0142 42.634 41.4735 42.8548 41.9833C43.0757 42.4931 43.1899 43.0427 43.1906 43.5983V49.4506H38.2815ZM53.3661 49.4506H47.7476V23.6821H53.3661V49.4506ZM55.9404 22.1321H45.1732V19.0764H55.9404V22.1321Z" fill="black"/>
<path d="M31.6444 12.4852C31.4506 12.4159 31.2373 12.4265 31.0513 12.5146C30.8653 12.6027 30.7219 12.761 30.6527 12.9548C30.5834 13.1486 30.594 13.362 30.6821 13.548C30.7702 13.734 30.9285 13.8774 31.1223 13.9466C33.0645 14.6026 34.7566 15.8426 35.9672 17.497C36.0253 17.5806 36.0994 17.6519 36.1851 17.7069C36.2708 17.7619 36.3665 17.7994 36.4668 17.8174C36.567 17.8354 36.6698 17.8335 36.7693 17.8118C36.8688 17.79 36.963 17.7489 37.0466 17.6907C37.1302 17.6326 37.2016 17.5585 37.2565 17.4728C37.3115 17.3871 37.3491 17.2914 37.3671 17.1911C37.3851 17.0909 37.3831 16.9881 37.3614 16.8886C37.3397 16.7891 37.2985 16.6949 37.2404 16.6113C35.8451 14.6918 33.8906 13.2507 31.6444 12.4852Z" fill="black"/>
</svg>
