<svg width="68" height="68" viewBox="0 0 68 68" fill="none" xmlns="http://www.w3.org/2000/svg">
<path d="M43.7106 29.1927L46.9256 32.7166L44.539 36.8468C44.0162 37.7515 44.9744 38.8803 45.9753 38.4334L50.357 36.4775L53.5766 40.0063C54.2779 40.7764 55.6374 40.1928 55.5318 39.1375L55.3519 37.0675C55.2734 36.1618 53.8723 36.2836 53.9511 37.1892L54.0606 38.4503L51.2603 35.3809C50.9315 35.0206 50.4121 34.913 49.9667 35.1118L46.1922 36.7965L48.2475 33.2399C48.4933 32.8146 48.436 32.2851 48.1049 31.9223L45.3363 28.8877L49.3838 29.7259C49.8614 29.8249 50.3461 29.608 50.5899 29.1863L52.6538 25.6144L53.096 29.6999C53.1487 30.1864 53.5067 30.58 53.9867 30.6793L58.0236 31.5154L54.2591 33.1958C53.4288 33.5662 54.0022 34.8506 54.8323 34.4799L59.3968 32.4425C60.3559 32.0143 60.2133 30.533 59.1666 30.3162L54.4717 29.3438L53.9595 24.6119C53.8468 23.5701 52.3945 23.2522 51.8627 24.1724L49.4727 28.3084L44.774 27.3353C43.749 27.1231 42.9896 28.4025 43.7106 29.1927Z" fill="black"/>
<path d="M50.7817 49.7197C50.4093 49.2328 49.759 49.111 49.2356 49.4304C42.4056 53.5965 33.6427 53.0245 27.4301 48.007C27.4118 47.9923 27.3939 47.9777 27.3756 47.9628C23.5045 44.813 21.0929 40.3492 20.583 35.3864C20.0708 30.4002 21.5404 25.5173 24.7211 21.6372C29.7837 15.4616 38.2472 13.1199 45.7816 15.8103C46.359 16.0165 46.971 15.7652 47.2366 15.2126C47.501 14.6627 47.3166 14.0306 46.797 13.71C42.7844 11.2309 38.1138 9.99002 33.2899 10.1214C32.3811 10.1461 32.4194 11.5519 33.3282 11.5271C37.1431 11.4233 40.8546 12.2283 44.1819 13.8678C36.6501 12.0514 28.6116 14.6731 23.6335 20.7457C20.2135 24.9178 18.6332 30.1684 19.1841 35.5301C19.7323 40.8669 22.325 45.6664 26.4878 49.0534C26.5073 49.0693 26.527 49.0853 26.5465 49.101C32.6545 54.034 41.0576 54.9667 48.0622 51.6584C44.351 54.5513 39.7627 56.2537 34.9293 56.4984C29.2811 56.7843 23.8051 55.0313 19.5098 51.5623C19.4877 51.5444 19.4659 51.5268 19.4438 51.5088C14.7685 47.7045 11.857 42.3228 11.2429 36.3459C10.626 30.3408 12.4019 24.4527 16.2434 19.7665C19.6067 15.6636 24.4012 12.8696 29.7437 11.8992C30.6382 11.7368 30.387 10.3532 29.4924 10.5156C23.822 11.5456 18.7305 14.5144 15.1558 18.8751C11.075 23.8533 9.1885 30.109 9.84407 36.4897C10.4965 42.8408 13.589 48.5581 18.5561 52.5995C18.5793 52.6183 18.603 52.6377 18.6262 52.6564C23.191 56.3431 29.0061 58.2063 35.0003 57.9029C40.9022 57.604 46.4624 55.2521 50.6568 51.2803C51.0999 50.8607 51.1524 50.2044 50.7817 49.7197Z" fill="black"/>
</svg>
