<svg width="76" height="74" viewBox="0 0 76 74" fill="none" xmlns="http://www.w3.org/2000/svg">
<g clip-path="url(#clip0_2149_550)">
<path d="M72.7463 52.7526C72.7129 52.6403 72.6617 52.5314 72.5893 52.4306L62.7236 38.69C63.8827 36.3679 64.4936 33.7832 64.4936 31.178C64.4936 27.9164 63.5547 24.7474 61.7785 22.0135C60.0497 19.3526 57.6138 17.2224 54.7339 15.853C54.1875 15.5931 53.5307 15.8194 53.2673 16.3588C53.0038 16.8981 53.2333 17.546 53.78 17.8059C56.2932 19.001 58.4194 20.8605 59.9287 23.1834C61.4776 25.5675 62.2963 28.3319 62.2963 31.1779C62.2963 33.0475 61.9352 34.9042 61.2453 36.6311L55.9937 29.3169C55.6428 28.8285 54.9573 28.7128 54.462 29.0589C54.3486 29.1381 54.2562 29.2354 54.1835 29.3431C54.1834 29.3431 54.1825 29.3431 54.1825 29.3431L46.459 40.7972L34.2331 23.7697C36.9189 19.1718 41.8469 16.3428 47.2608 16.3428C47.918 16.3428 48.5792 16.385 49.2261 16.4682C49.8272 16.5457 50.3791 16.1271 50.4576 15.5335C50.5359 14.94 50.1119 14.3959 49.5101 14.3185C48.7693 14.2232 48.0126 14.1748 47.2608 14.1748C41.3922 14.1748 36.0223 17.0754 32.8532 21.8478L30.2812 18.2656C30.0724 17.9745 29.7355 17.8033 29.3701 17.8083C29.0086 17.8131 28.6726 17.9929 28.4716 18.2895L5.14014 52.6956H3.89282C2.02734 52.6956 0.509766 54.1929 0.509766 56.0336V58.741C0.509766 59.3397 1.00151 59.825 1.6084 59.825H11.4278C12.0347 59.825 12.5265 59.3397 12.5265 58.741C12.5265 58.1424 12.0347 57.657 11.4278 57.657H2.70703V56.0336C2.70703 55.3885 3.23906 54.8635 3.89297 54.8635H5.72402C5.72476 54.8635 5.72534 54.8637 5.72607 54.8637C5.72681 54.8637 5.72769 54.8635 5.72842 54.8635H54.434H60.1654C60.167 54.8635 60.1686 54.8637 60.1704 54.8637C60.1717 54.8637 60.1731 54.8635 60.1745 54.8635H72.1267C72.7806 54.8635 73.3126 55.3885 73.3126 56.0336V57.657H15.8224C15.2155 57.657 14.7237 58.1424 14.7237 58.741C14.7237 59.3397 15.2155 59.825 15.8224 59.825H74.4111C75.018 59.825 75.5098 59.3397 75.5098 58.741V56.0336C75.5098 54.4019 74.3168 53.0408 72.7463 52.7526ZM61.0632 52.6956L57.2604 34.8316L70.0868 52.6956H61.0632ZM49.7924 39.7678C49.81 39.7687 49.8274 39.7704 49.8451 39.7704H52.6838C53.2907 39.7704 53.7825 39.2851 53.7825 38.6864C53.7825 38.0878 53.2907 37.6024 52.6838 37.6024H51.2524L54.5606 32.6963L56.6295 42.4156H54.7699C54.163 42.4156 53.6713 42.901 53.6713 43.4996C53.6713 44.0983 54.163 44.5836 54.7699 44.5836H57.0911L58.8179 52.6956H55.002L52.7836 49.6059H54.1033C54.7102 49.6059 55.2019 49.1206 55.2019 48.5219C55.2019 47.9233 54.7102 47.4379 54.1033 47.4379H51.2645C51.2524 47.4379 51.2404 47.4394 51.2284 47.4398L47.8201 42.693L49.7924 39.7678ZM30.5281 39.1806H32.5812L34.5458 48.4098H32.9193C32.3124 48.4098 31.8207 48.8951 31.8207 49.4938C31.8207 50.0924 32.3124 50.5777 32.9193 50.5777H35.0074L35.4583 52.6956H7.78403L14.6178 42.6181H17.2418C17.8487 42.6181 18.3404 42.1328 18.3404 41.5341C18.3404 40.9355 17.8487 40.4501 17.2418 40.4501H16.0879L17.5521 38.2911L21.5023 32.4661H24.3023C24.9092 32.4661 25.401 31.9808 25.401 31.3821C25.401 30.7835 24.9092 30.2981 24.3023 30.2981H22.9726L28.8466 21.6361L32.1199 37.0126H30.5284C29.9215 37.0126 29.4297 37.498 29.4297 38.0966C29.4294 38.6953 29.9212 39.1806 30.5281 39.1806ZM37.7033 52.6956L31.548 23.7804L52.3091 52.6956H37.7033Z" fill="black"/>
<path d="M25.7206 44.6108H22.8818C22.275 44.6108 21.7832 45.0962 21.7832 45.6948C21.7832 46.2935 22.275 46.7788 22.8818 46.7788H25.7206C26.3274 46.7788 26.8192 46.2935 26.8192 45.6948C26.8192 45.0962 26.3274 44.6108 25.7206 44.6108Z" fill="black"/>
<path d="M15.8221 48.9399H12.9834C12.3765 48.9399 11.8848 49.4253 11.8848 50.0239C11.8848 50.6226 12.3765 51.1079 12.9834 51.1079H15.8221C16.429 51.1079 16.9208 50.6226 16.9208 50.0239C16.9208 49.4253 16.429 48.9399 15.8221 48.9399Z" fill="black"/>
</g>
<defs>
<clipPath id="clip0_2149_550">
<rect width="75" height="74" fill="white" transform="translate(0.509766)"/>
</clipPath>
</defs>
</svg>
