<?xml version="1.0" encoding="utf-8"?>
<!-- Generated by IcoMoon.io -->
<svg version="1.1" xmlns="http://www.w3.org/2000/svg" xmlns:xlink="http://www.w3.org/1999/xlink" width="816" height="36" viewBox="0 0 816 36">
<svg id="icon-instagram" width="37" height="36" viewBox="0 0 37 36" x="0" y="0">
<path d="M36.075 10.787c-0.020-1.494-0.3-2.973-0.828-4.371-0.458-1.179-1.157-2.25-2.053-3.145s-1.969-1.592-3.15-2.049c-1.383-0.518-2.843-0.798-4.32-0.829-1.901-0.085-2.504-0.108-7.329-0.108s-5.444 0-7.331 0.108c-1.476 0.030-2.936 0.311-4.318 0.829-1.182 0.457-2.255 1.154-3.15 2.049s-1.595 1.966-2.052 3.145c-0.52 1.379-0.8 2.837-0.828 4.31-0.085 1.9-0.111 2.501-0.111 7.319s0 5.433 0.111 7.319c0.030 1.476 0.308 2.931 0.828 4.314 0.458 1.179 1.158 2.25 2.054 3.144s1.969 1.592 3.151 2.048c1.378 0.539 2.838 0.839 4.317 0.888 1.903 0.085 2.506 0.111 7.331 0.111s5.444 0 7.331-0.111c1.476-0.029 2.937-0.308 4.319-0.827 1.181-0.457 2.254-1.156 3.149-2.050s1.595-1.965 2.053-3.144c0.52-1.381 0.798-2.837 0.828-4.314 0.085-1.898 0.111-2.499 0.111-7.319-0.004-4.817-0.004-5.429-0.115-7.317zM18.384 27.154c-5.047 0-9.135-4.082-9.135-9.12s4.088-9.12 9.135-9.12c2.423 0 4.746 0.961 6.459 2.671s2.676 4.030 2.676 6.449-0.962 4.738-2.676 6.449c-1.713 1.71-4.037 2.671-6.459 2.671zM27.883 10.704c-1.18 0-2.13-0.951-2.13-2.127 0-0.279 0.055-0.556 0.162-0.813s0.264-0.492 0.461-0.69c0.198-0.197 0.432-0.354 0.691-0.461s0.535-0.162 0.815-0.162c0.28 0 0.556 0.055 0.815 0.162s0.493 0.263 0.691 0.461c0.198 0.197 0.355 0.432 0.462 0.69s0.162 0.534 0.162 0.813c0 1.176-0.952 2.127-2.128 2.127z"></path>
</svg>
<svg id="icon-facebook-square" width="37" height="36" viewBox="0 0 37 36" x="0" y="0">
<path d="M31.154 0.284h-25.159c-2.874 0-5.212 2.339-5.212 5.212v25.159c0 2.874 2.339 5.212 5.212 5.212h10.494v-12.579h-4.17v-6.255h4.17v-4.239c0-3.449 2.806-6.255 6.255-6.255h6.324v6.255h-6.324v4.239h6.324l-1.042 6.255h-5.282v12.579h8.409c2.874 0 5.212-2.339 5.212-5.212v-25.159c0-2.874-2.339-5.212-5.212-5.212z"></path>
</svg>
</svg>
