<?xml version="1.0" encoding="utf-8"?>
<!-- Generated by IcoMoon.io -->
<svg version="1.1" xmlns="http://www.w3.org/2000/svg" xmlns:xlink="http://www.w3.org/1999/xlink" width="816" height="36" viewBox="0 0 816 36">
<svg id="icon-castle" width="41" height="36" viewBox="0 0 41 36" x="0" y="0">
<path d="M40.034 12.373h-1.746l0.224-0.545c0.254-0.613 0.321-1.289 0.191-1.94s-0.451-1.249-0.921-1.718l-1.548-1.548v-1.883c0-0.145-0.058-0.284-0.16-0.387s-0.242-0.16-0.387-0.16c-0.145 0-0.284 0.058-0.387 0.16s-0.16 0.242-0.16 0.387v1.883l-1.548 1.548c-0.47 0.469-0.791 1.067-0.921 1.718s-0.064 1.326 0.191 1.94l0.224 0.545h-1.746c-0.145 0-0.284 0.058-0.387 0.16s-0.16 0.242-0.16 0.387v3.249c0 0.145 0.058 0.284 0.16 0.387s0.242 0.16 0.387 0.16h1.27v3.537h-2.423v-2.071c-0-0.145-0.058-0.284-0.16-0.387s-0.242-0.16-0.387-0.16h-1.157c0.726-1.092 1.101-2.379 1.076-3.689s-0.45-2.582-1.218-3.645c-1.283-1.783-3.086-3.125-5.162-3.842l-0.603-0.216c0.246-0.532 0.363-1.115 0.341-1.7s-0.181-1.158-0.466-1.67l-1.4-2.503c-0.047-0.085-0.117-0.156-0.201-0.205s-0.179-0.075-0.277-0.075c-0.097 0-0.193 0.026-0.277 0.075s-0.153 0.12-0.201 0.205l-1.4 2.503c-0.285 0.512-0.444 1.085-0.466 1.67s0.095 1.168 0.341 1.7l-0.603 0.216c-2.076 0.717-3.878 2.060-5.16 3.842-0.768 1.063-1.193 2.334-1.218 3.645s0.35 2.598 1.075 3.69h-1.157c-0.145 0-0.284 0.058-0.387 0.16s-0.16 0.242-0.16 0.387v2.071h-2.423v-3.536h1.27c0.072-0 0.143-0.014 0.209-0.042s0.127-0.068 0.178-0.119c0.051-0.051 0.091-0.111 0.119-0.178s0.042-0.138 0.042-0.209v-3.251c-0-0.145-0.058-0.284-0.16-0.387s-0.242-0.16-0.387-0.16h-1.747l0.225-0.545c0.254-0.613 0.321-1.289 0.19-1.94s-0.451-1.249-0.921-1.718l-1.548-1.548v-1.881c0-0.145-0.058-0.284-0.16-0.387s-0.242-0.16-0.387-0.16c-0.145 0-0.284 0.058-0.387 0.16s-0.16 0.242-0.16 0.387v1.883l-1.548 1.548c-0.47 0.469-0.791 1.067-0.921 1.718s-0.064 1.326 0.191 1.94l0.224 0.545h-1.746c-0.145 0-0.284 0.058-0.387 0.16s-0.16 0.242-0.16 0.387v3.249c0 0.145 0.058 0.284 0.16 0.387s0.242 0.16 0.387 0.16h1.27v18.737c0 0.145 0.058 0.284 0.16 0.387s0.242 0.16 0.387 0.16h35.285c0.145 0 0.284-0.058 0.387-0.16s0.16-0.242 0.16-0.387v-18.736h1.27c0.072-0 0.143-0.014 0.209-0.042s0.127-0.068 0.177-0.119c0.051-0.051 0.091-0.111 0.119-0.178s0.042-0.138 0.042-0.209v-3.251c-0.001-0.145-0.059-0.283-0.161-0.385s-0.241-0.159-0.386-0.16zM33.873 11.412c-0.171-0.414-0.216-0.869-0.128-1.308s0.304-0.842 0.621-1.158l1.321-1.321 1.321 1.321c0.317 0.316 0.533 0.719 0.621 1.158s0.043 0.894-0.128 1.308l-0.397 0.962h-2.835l-0.397-0.962zM19.652 3.406l0.923-1.648 0.922 1.649c0.209 0.376 0.323 0.798 0.331 1.228s-0.090 0.856-0.285 1.239l-0.784-0.281c-0.119-0.043-0.249-0.043-0.368 0l-0.784 0.281c-0.195-0.384-0.293-0.809-0.285-1.24s0.122-0.852 0.331-1.228zM13.708 10.925c1.152-1.595 2.769-2.796 4.63-3.436l2.237-0.8 2.237 0.8c1.861 0.64 3.478 1.84 4.63 3.436 0.711 0.99 1.067 2.192 1.010 3.41s-0.523 2.381-1.323 3.301h-13.108c-0.8-0.92-1.266-2.083-1.323-3.301s0.299-2.419 1.010-3.41zM12.056 18.729h17.037v1.524h-17.037v-1.524zM3.648 11.412c-0.171-0.414-0.216-0.869-0.128-1.308s0.304-0.842 0.621-1.158l1.321-1.321 1.321 1.321c0.317 0.316 0.533 0.719 0.621 1.158s0.043 0.894-0.128 1.308l-0.396 0.962h-2.835l-0.397-0.962zM1.662 13.467h7.6v2.157h-7.6v-2.157zM3.479 16.718h3.966v18.19h-3.966v-18.19zM8.539 21.347h24.071v13.559h-1.027v-4.131c-0.001-0.542-0.113-1.078-0.328-1.575s-0.531-0.945-0.925-1.316l-1.2-1.124c-0.101-0.095-0.235-0.147-0.374-0.147s-0.272 0.053-0.374 0.147l-1.2 1.124c-0.395 0.371-0.71 0.819-0.925 1.316s-0.327 1.033-0.328 1.575v4.131h-1.465v-6.306c-0.001-0.759-0.158-1.51-0.46-2.207s-0.743-1.324-1.297-1.844l-1.757-1.646c-0.101-0.095-0.235-0.148-0.374-0.148s-0.272 0.053-0.374 0.148l-1.759 1.646c-0.553 0.52-0.995 1.147-1.296 1.844s-0.458 1.447-0.459 2.207v6.306h-1.465v-4.131c-0.001-0.542-0.113-1.078-0.328-1.575s-0.53-0.945-0.925-1.316l-1.2-1.124c-0.101-0.095-0.235-0.147-0.374-0.147s-0.272 0.053-0.374 0.147l-1.199 1.124c-0.395 0.371-0.71 0.819-0.925 1.316s-0.327 1.033-0.328 1.575v4.131h-1.028v-13.559zM10.66 34.906v-4.131c0-0.392 0.081-0.78 0.237-1.14s0.384-0.684 0.67-0.953l0.826-0.774 0.826 0.774c0.286 0.269 0.514 0.593 0.67 0.953s0.237 0.748 0.237 1.14v4.131h-3.465zM17.781 34.906v-6.306c0.001-0.609 0.126-1.212 0.369-1.771s0.597-1.063 1.041-1.48l1.384-1.297 1.384 1.296c0.444 0.417 0.798 0.921 1.041 1.48s0.368 1.162 0.369 1.771v6.306l-5.588 0.001zM27.022 34.906v-4.131c0-0.392 0.081-0.78 0.237-1.14s0.384-0.684 0.67-0.953l0.826-0.774 0.826 0.774c0.286 0.269 0.514 0.593 0.67 0.953s0.237 0.748 0.237 1.14v4.131h-3.465zM37.67 34.906h-3.966v-18.19h3.966v18.19zM39.487 15.623h-7.6v-2.157h7.6v2.157z"></path>
<path d="M22.337 8.813c-0.137-0.049-0.287-0.041-0.419 0.021s-0.233 0.174-0.281 0.311c-0.049 0.137-0.041 0.287 0.021 0.419s0.174 0.233 0.311 0.281c1.371 0.463 2.565 1.338 3.42 2.506 0.041 0.059 0.093 0.109 0.154 0.148s0.128 0.065 0.199 0.078c0.071 0.013 0.143 0.011 0.214-0.004s0.137-0.044 0.196-0.085c0.059-0.041 0.109-0.093 0.148-0.154s0.065-0.128 0.078-0.199c0.013-0.071 0.011-0.143-0.004-0.214s-0.044-0.137-0.085-0.196c-0.985-1.355-2.365-2.372-3.95-2.913z"></path>
</svg>
<svg id="icon-moon" width="36" height="36" viewBox="0 0 36 36" x="52" y="0">
<path d="M23.141 15.455l1.702 1.866-1.263 2.187c-0.277 0.479 0.231 1.077 0.76 0.84l2.32-1.035 1.704 1.868c0.371 0.408 1.091 0.099 1.035-0.46l-0.095-1.096c-0.042-0.479-0.783-0.415-0.742 0.064l0.058 0.668-1.483-1.625c-0.174-0.191-0.449-0.248-0.685-0.142l-1.998 0.892 1.088-1.883c0.13-0.225 0.1-0.505-0.075-0.698l-1.466-1.607 2.143 0.444c0.253 0.052 0.509-0.062 0.639-0.286l1.093-1.891 0.234 2.163c0.028 0.258 0.217 0.466 0.472 0.519l2.137 0.443-1.993 0.89c-0.44 0.196-0.136 0.876 0.303 0.68l2.416-1.079c0.508-0.227 0.432-1.011-0.122-1.126l-2.486-0.515-0.271-2.505c-0.060-0.552-0.829-0.72-1.11-0.233l-1.265 2.19-2.488-0.515c-0.543-0.112-0.945 0.565-0.563 0.983z"></path>
<path d="M26.884 26.322c-0.197-0.258-0.541-0.322-0.819-0.153-3.616 2.206-8.255 1.903-11.544-0.754-0.010-0.008-0.019-0.016-0.029-0.023-2.049-1.668-3.326-4.031-3.596-6.658-0.271-2.64 0.507-5.225 2.191-7.279 2.68-3.269 7.161-4.509 11.15-3.085 0.306 0.109 0.63-0.024 0.77-0.316 0.14-0.291 0.042-0.626-0.233-0.795-2.124-1.312-4.597-1.969-7.151-1.9-0.481 0.013-0.461 0.757 0.020 0.744 2.020-0.055 3.985 0.371 5.746 1.239-3.987-0.962-8.243 0.426-10.879 3.641-1.811 2.209-2.647 4.988-2.356 7.827 0.29 2.825 1.663 5.366 3.867 7.159 0.010 0.008 0.021 0.017 0.031 0.025 3.234 2.612 7.682 3.105 11.391 1.354-1.965 1.532-4.394 2.433-6.953 2.562-2.99 0.151-5.889-0.777-8.163-2.613-0.012-0.009-0.023-0.019-0.035-0.028-2.475-2.014-4.017-4.863-4.342-8.027-0.327-3.179 0.614-6.296 2.647-8.777 1.781-2.172 4.319-3.651 7.147-4.165 0.474-0.086 0.341-0.818-0.133-0.732-3.002 0.545-5.697 2.117-7.59 4.426-2.16 2.636-3.159 5.947-2.812 9.325 0.345 3.362 1.983 6.389 4.612 8.529 0.012 0.010 0.025 0.020 0.037 0.030 2.417 1.952 5.495 2.938 8.669 2.778 3.125-0.158 6.068-1.403 8.289-3.506 0.235-0.222 0.262-0.57 0.066-0.826z"></path>
</svg>
<svg id="icon-pyramids" width="37" height="36" viewBox="0 0 37 36" x="104" y="0">
<path d="M35.39 25.663c-0.016-0.055-0.041-0.108-0.076-0.157l-4.8-6.685c0.564-1.13 0.861-2.387 0.861-3.654 0-1.587-0.457-3.128-1.321-4.458-0.841-1.294-2.026-2.331-3.427-2.997-0.266-0.126-0.585-0.016-0.713 0.246s-0.017 0.578 0.249 0.704c1.223 0.581 2.257 1.486 2.991 2.616 0.754 1.16 1.152 2.505 1.152 3.889 0 0.91-0.176 1.813-0.511 2.653l-2.555-3.558c-0.171-0.238-0.504-0.294-0.745-0.126-0.055 0.039-0.1 0.086-0.135 0.138-0 0-0 0-0 0l-3.757 5.572-5.948-8.284c1.307-2.237 3.704-3.613 6.338-3.613 0.32 0 0.641 0.021 0.956 0.061 0.292 0.038 0.561-0.166 0.599-0.455s-0.168-0.553-0.461-0.591c-0.36-0.046-0.729-0.070-1.094-0.070-2.855 0-5.467 1.411-7.009 3.733l-1.251-1.743c-0.102-0.142-0.265-0.225-0.443-0.222-0.176 0.002-0.339 0.090-0.437 0.234l-11.35 16.738h-0.607c-0.908 0-1.646 0.728-1.646 1.624v1.317c0 0.291 0.239 0.527 0.534 0.527h4.777c0.295 0 0.535-0.236 0.535-0.527s-0.239-0.527-0.535-0.527h-4.243v-0.79c0-0.314 0.259-0.569 0.577-0.569h0.891c0 0 0.001 0 0.001 0s0.001-0 0.001-0h26.483c0.001 0 0.002 0 0.002 0s0.001-0 0.002-0h5.815c0.318 0 0.577 0.255 0.577 0.569v0.79h-27.968c-0.295 0-0.535 0.236-0.535 0.527s0.239 0.527 0.535 0.527h28.503c0.295 0 0.535-0.236 0.535-0.527v-1.317c0-0.794-0.58-1.456-1.344-1.596zM29.706 25.636l-1.85-8.691 6.24 8.691h-4.39zM24.223 19.346c0.009 0 0.017 0.001 0.026 0.001h1.381c0.295 0 0.535-0.236 0.535-0.527s-0.239-0.527-0.535-0.527h-0.696l1.609-2.387 1.006 4.728h-0.905c-0.295 0-0.534 0.236-0.534 0.527s0.239 0.527 0.534 0.527h1.129l0.84 3.946h-1.856l-1.079-1.503h0.642c0.295 0 0.534-0.236 0.534-0.527s-0.239-0.527-0.534-0.527h-1.381c-0.006 0-0.012 0.001-0.018 0.001l-1.658-2.309 0.959-1.423zM14.852 19.061h0.999l0.956 4.49h-0.791c-0.295 0-0.534 0.236-0.534 0.527s0.239 0.527 0.534 0.527h1.016l0.219 1.030h-13.463l3.325-4.903h1.277c0.295 0 0.534-0.236 0.534-0.527s-0.239-0.527-0.534-0.527h-0.561l2.634-3.884h1.362c0.295 0 0.535-0.236 0.535-0.527s-0.239-0.527-0.535-0.527h-0.647l2.858-4.214 1.592 7.48h-0.774c-0.295 0-0.535 0.236-0.535 0.527s0.239 0.527 0.534 0.527zM18.342 25.636l-2.994-14.067 10.1 14.067h-7.106z"></path>
<path d="M12.513 21.703h-1.381c-0.295 0-0.534 0.236-0.534 0.527s0.239 0.527 0.534 0.527h1.381c0.295 0 0.534-0.236 0.534-0.527s-0.239-0.527-0.534-0.527z"></path>
<path d="M7.697 23.809h-1.381c-0.295 0-0.534 0.236-0.534 0.527s0.239 0.527 0.534 0.527h1.381c0.295 0 0.535-0.236 0.535-0.527s-0.239-0.527-0.535-0.527z"></path>
</svg>
<svg id="icon-star" width="37" height="36" viewBox="0 0 37 36" x="156" y="0">
<path d="M23.062 14.038h1.099v0.019h13.028l-11.423 8.3 4.363 13.429-11.423-8.3-11.423 8.3 4.363-13.429-11.423-8.3h13.438v-0.019h0.688l4.357-13.41 4.357 13.41zM15.892 14.038l2.812-8.655 2.812 8.655h-5.624zM15.416 15.504l-0.007 0.023h-0.017l-2.025 6.293 5.33 3.856 0.008-0.006 0.011 0.008 5.328-3.855-2.026-6.297h-0.017l-0.007-0.023h-6.577zM25.254 20.912l-1.733-5.385h9.145l-7.412 5.385zM24.489 23.208l-4.597 3.326 7.396 5.373-2.799-8.699zM13.313 29.588l-1.596 1.155 0.002 0.003-1.598 1.161 2.818-8.755 4.626 3.347-4.251 3.089zM4.743 15.527h9.259l-1.755 5.452-7.505-5.452z"></path>
</svg>
<svg id="icon-Vector-1" width="37" height="36" viewBox="0 0 37 36" x="208" y="0">
<path fill="#fff" d="M36.075 10.787c-0.020-1.494-0.3-2.973-0.828-4.371-0.458-1.179-1.157-2.25-2.053-3.145s-1.969-1.592-3.15-2.049c-1.383-0.518-2.843-0.798-4.32-0.829-1.901-0.085-2.504-0.108-7.329-0.108s-5.444 0-7.331 0.108c-1.476 0.030-2.936 0.311-4.318 0.829-1.182 0.457-2.255 1.154-3.15 2.049s-1.595 1.966-2.052 3.145c-0.52 1.379-0.8 2.837-0.828 4.31-0.085 1.9-0.111 2.501-0.111 7.319s0 5.433 0.111 7.319c0.030 1.476 0.308 2.931 0.828 4.314 0.458 1.179 1.158 2.25 2.054 3.144s1.969 1.592 3.151 2.048c1.378 0.539 2.838 0.839 4.317 0.888 1.903 0.085 2.506 0.111 7.331 0.111s5.444 0 7.331-0.111c1.476-0.029 2.937-0.308 4.319-0.827 1.181-0.457 2.254-1.156 3.149-2.050s1.595-1.965 2.053-3.144c0.52-1.381 0.798-2.837 0.828-4.314 0.085-1.898 0.111-2.499 0.111-7.319-0.004-4.817-0.004-5.429-0.115-7.317zM18.384 27.154c-5.047 0-9.135-4.082-9.135-9.12s4.088-9.12 9.135-9.12c2.423 0 4.746 0.961 6.459 2.671s2.676 4.030 2.676 6.449-0.962 4.738-2.676 6.449c-1.713 1.71-4.037 2.671-6.459 2.671zM27.883 10.704c-1.18 0-2.13-0.951-2.13-2.127 0-0.279 0.055-0.556 0.162-0.813s0.264-0.492 0.461-0.69c0.198-0.197 0.432-0.354 0.691-0.461s0.535-0.162 0.815-0.162c0.28 0 0.556 0.055 0.815 0.162s0.493 0.263 0.691 0.461c0.198 0.197 0.355 0.432 0.462 0.69s0.162 0.534 0.162 0.813c0 1.176-0.952 2.127-2.128 2.127z"></path>
</svg>
<svg id="icon-Vector" width="37" height="36" viewBox="0 0 37 36" x="260" y="0">
<path fill="#fff" d="M31.154 0.284h-25.159c-2.874 0-5.212 2.339-5.212 5.212v25.159c0 2.874 2.339 5.212 5.212 5.212h10.494v-12.579h-4.17v-6.255h4.17v-4.239c0-3.449 2.806-6.255 6.255-6.255h6.324v6.255h-6.324v4.239h6.324l-1.042 6.255h-5.282v12.579h8.409c2.874 0 5.212-2.339 5.212-5.212v-25.159c0-2.874-2.339-5.212-5.212-5.212z"></path>
</svg>
</svg>
